<?xml version="1.0" standalone="no"?><!DOCTYPE svg PUBLIC "-//W3C//DTD SVG 1.1//EN" "http://www.w3.org/Graphics/SVG/1.1/DTD/svg11.dtd"><svg t="1702485709713" class="icon" viewBox="0 0 3120 1024" version="1.1" xmlns="http://www.w3.org/2000/svg" p-id="1232" xmlns:xlink="http://www.w3.org/1999/xlink" width="609.375" height="200"><path d="M822.3165343 367.14526391V267.03234887c-2.04816511-38.45607192-21.25854516-58.69053452-57.66645196-60.73870036H497.57636981c2.04816511-6.03855698 5.08510024-14.12527908 9.11080467-24.2601663 2.01285258-12.11242652 4.06101768-20.23446188 6.07387025-24.26016702H455.09459275C438.95646182 216.42853646 408.587112 275.11907097 364.09248309 333.77429223l54.62951612 21.25854445c30.36934982-38.45607192 51.55726845-74.86397872 63.74032152-109.25903297h251.85372505c20.23446188-2.01285258 30.36934982 9.11080465 30.36934982 33.37097168v88.00048852zM330.68619815 291.29251517A775.30125205 775.30125205 0 0 0 248.75957989 166.88412057H191.05781465A1057.41838714 1057.41838714 0 0 1 263.90894154 291.29251517z m503.74276267 215.48113153l21.25854517-48.5556466c-105.23332854-14.16059235-178.04914216-50.60381243-218.51806665-109.25903297h-45.51871147a188.81966745 188.81966745 0 0 0 24.29547958-66.74194335h-57.66645126C546.13201641 365.09709807 471.30335022 422.76355004 333.72313255 455.14575172l21.25854517 42.48177706c121.40677346-28.32118471 198.28360403-72.85112688 230.63049316-133.5192 44.49462891 74.86397872 127.480643 122.39554275 248.85210321 142.63000465z m-570.52001928-9.11080467C292.23012551 453.16821313 315.50152325 395.46644789 333.72313255 324.66348685H276.05668132a793.13441689 793.13441689 0 0 1-78.88968314 172.99935518z m24.29547955 239.74129783v-142.6653179c2.01285258-18.18629677 13.1365098-28.28587144 33.37097168-30.33403657h382.37130319c22.24731445 0 33.37097168 10.13488793 33.37097169 30.36934983v142.63000464h60.73869963v-145.66693977c-2.04816511-44.49462891-25.31956284-67.80133918-69.81419176-69.81419176H297.27991321c-44.49462891 2.04816511-67.76602591 23.30671028-69.77887848 63.74032151v151.74081002z m549.26147486 118.33452507l21.25854516-48.55564659c-139.59307024-16.1734442-236.70436342-62.71623893-291.33388025-139.59307024h-42.48177635c8.0867221-18.18629677 15.18467491-39.44484193 21.2232319-63.70500823H482.42700744c-14.16059235 48.55564658-33.40628494 83.93947084-57.66645122 106.18678529-42.48177634 46.54279402-127.480643 76.87683129-254.92597348 91.03742293l15.18467565 45.55402473c137.58021767-14.16059235 232.64334574-46.54279402 285.26000928-97.11129318a299.95029991 299.95029991 0 0 0 45.51871146-57.66645124c64.72909078 93.05027549 171.9752719 147.67979234 321.70323007 163.85323653z m254.961286-525.00130782c-24.29547955-62.71623893-50.60381243-119.35860763-78.92499642-169.92710679h-63.7403215a2242.84711555 2242.84711555 0 0 1 75.85274802 169.92710679z m57.63113869 515.92581571c44.49462891-105.23332854 66.74194336-208.38317872 66.74194336-309.55548957V245.73849045c2.04816511-22.24731445 14.19590561-34.39505423 36.44322008-36.40790681h373.2604978V166.88412057H1222.9094468c-40.43361123 2.01285258-61.69215638 25.28424958-63.70500823 69.77887849v288.2969444c2.01285258 97.11129319-19.2456926 198.28360403-63.7403215 303.48162006z m257.96290786-6.07386953c38.42075865-2.04816511 58.65522126-21.25854516 60.66807384-57.66645196V537.07236998h63.74032149c40.46892449-2.01285258 61.69215638-22.24731445 63.7403215-60.70338637V339.84816177c-2.04816511-34.39505423-24.29547955-52.61666427-66.74194336-54.62951612h-88.03580179c6.07387026-20.23446188 11.12365723-43.50585961 15.18467492-69.77887849H1401.94735898a347.48186393 347.48186393 0 0 0-6.07387027 33.37097167l-9.11080538 36.40790682h-45.55402471c-38.42075865 2.01285258-58.61990798 20.23446188-60.66807311 54.62951612v133.51919998c0 42.48177634 20.23446188 63.7403215 60.70338636 63.7403215h69.81419177v233.6674283c-2.04816511 16.1734442-14.19590561 25.28424958-36.44322009 27.33241468h-48.55564658l9.11080538 42.48177706z m130.48226485-449.18387308h-200.29645661V348.99428041c2.01285258-16.20875747 12.14773978-24.29547955 30.36935055-24.29548029h139.59306952c18.18629677 2.04816511 28.32118471 10.13488793 30.33403654 24.29548029z m-455.18711607 121.40677347a320.89102641 320.89102641 0 0 1-9.14611791-21.2232319c-28.32118471-64.72909078-50.56849916-110.28311624-66.74194336-136.55613511h-63.74032224a1936.39918763 1936.39918763 0 0 1 69.81419176 157.77936701z m421.8161444-12.11242725H1371.57800843c-22.24731445-2.04816511-33.37097168-12.14773978-33.37097169-30.36934981V430.88558542h200.29645661v36.4079068c0 22.24731445-11.12365723 33.40628494-33.37097167 33.40628422z m-500.7411408 342.89114871c38.42075865-84.96355339 74.86397872-181.05076402 109.25903296-288.26163185h-60.73869964c-28.28587144 82.95070084-66.74194336 179.03791146-115.29758995 288.29694513z m279.18613975-51.55726844c30.36934982-60.73869964 53.60543356-129.49349557 69.81419103-206.37032686h-51.59258099c-16.20875747 70.80296104-39.44484193 134.54328255-69.81419175 191.18565194z m306.51855445 0l48.55564658-15.18467492c-26.30833213-56.64236869-49.57972914-120.38269019-69.81419175-191.18565194h-48.55564659c16.20875747 78.88968314 39.44484193 147.67979234 69.81419176 206.37032686z m185.1117817 51.55726844c32.38220239-97.11129319 47.53156403-188.14871682 45.55402473-273.11227022V303.44025494c4.02570442-22.24731445 16.13813092-34.39505423 36.37259354-36.44321933h552.29840924V224.55057181h-276.14920462a714.77443131 714.77443131 0 0 0-27.29710142-69.77887848h-63.70500824c2.01285258 6.07387026 6.03855698 17.19752748 12.11242652 33.37097168l9.11080467 36.4079068h-239.74129783c-38.45607192 4.06101768-59.67930382 26.30833213-63.74032151 66.77725663v276.14920463c0 78.9249964-16.1734442 164.91263236-48.55564657 257.96290857z m415.74227486 6.07386955v-112.2959681h218.51806594V694.92236352h-218.51806594v-91.03742365h191.18565124v-42.5170896h-191.18565124V455.18106497H2127.28043596v106.18678529h-166.92548422l72.85112616-148.66856162h364.14969316v-45.55402473h-342.89114799l36.37259354-72.81581361h-66.74194336l-36.40790681 72.81581361h-121.40677348v45.55402473h100.14822831l-66.74194336 142.63000464c-6.07387026 14.12527908-5.08510024 26.27301887 3.00162187 36.37259354 10.13488793 8.12203537 21.25854516 12.18305304 33.40628495 12.18305305h191.18565123v91.03742365h-276.14920464v42.48177634h276.14920464v112.29596808z" fill="#090E14" fill-opacity=".8" p-id="1233"></path></svg>