<?xml version="1.0" standalone="no"?><!DOCTYPE svg PUBLIC "-//W3C//DTD SVG 1.1//EN" "http://www.w3.org/Graphics/SVG/1.1/DTD/svg11.dtd"><svg t="1702486118010" class="icon" viewBox="0 0 3120 1024" version="1.1" xmlns="http://www.w3.org/2000/svg" p-id="1232" xmlns:xlink="http://www.w3.org/1999/xlink" width="609.375" height="200"><path d="M641.5884176 376.19868492V282.34282707c-1.92015479-36.05256742-19.92988609-55.02237611-54.06229871-56.94253159H337.14451339c1.92015479-5.66114717 4.76728147-13.24244914 8.54137938-22.74390591 1.88704929-11.35539986 3.80720408-18.96980801 5.69425336-22.74390658H297.3178474C282.18834965 234.90175293 253.71708419 289.92412903 212.00336959 344.91339897l51.21517136 19.92988542c28.47126546-36.05256742 48.33493917-70.18498005 59.75655143-102.43034341h236.11286723c18.96980801-1.88704929 28.47126546 8.54137936 28.47126546 31.28528595v82.50045799zM180.68497746 305.08673297A726.8449238 726.8449238 0 0 0 103.87877284 188.45386303H49.78336793A991.32973794 991.32973794 0 0 1 118.08129939 305.08673297z m472.25884 202.01356081l19.9298861-45.52091869c-98.65624551-13.27555533-166.92107078-47.44107415-204.86068749-102.43034341h-42.673792a177.01843823 177.01843823 0 0 0 22.77701211-62.57057189h-54.06229806C382.66543208 374.27852944 312.51355752 428.34082816 183.53210346 458.69914224l19.92988609 39.82666599c113.81885012-26.55111067 185.89087878-68.29793145 216.21608734-125.17425 41.7137146 70.18498005 119.51310281 114.74582133 233.29884676 133.71562936z m-534.86251807-8.54137938C144.63240936 456.84519981 166.44934474 402.7497949 183.53210346 336.37201892H129.46980543a743.56351583 743.56351583 0 0 1-73.95907794 162.18689548z m22.77701207 224.75746672v-133.74873553c1.88704929-17.04965322 12.31547794-26.51800448 31.28528595-28.43815929h358.47309674c20.8568573 0 31.28528595 9.50145743 31.28528596 28.47126547v133.71562935h56.94253091v-136.56275604c-1.92015479-41.7137146-23.73709016-63.56375548-65.45080478-65.45080477H149.36658533c-41.7137146 1.92015479-63.53064929 21.85004089-65.41769858 59.75655142v142.25700939z m514.93263268 110.93861725l19.92988609-45.52091868c-130.86850335-15.16260394-221.91034071-58.796474-273.12551273-130.86850335h-39.82666533c7.58130197-17.04965322 14.23563273-36.97953931 19.89677991-59.72344521H322.94198617c-13.27555533 45.52091867-31.31839213 78.69325391-54.06229802 99.55011121-39.82666532 43.63386939-119.51310281 72.07202933-238.99310014 85.34758399l14.23563342 42.70689819c128.98145407-13.27555533 218.10313663-43.63386939 267.4312587-91.04183736a281.20340617 281.20340617 0 0 0 42.673792-54.06229803c60.68352261 87.23463327 161.22681741 138.44980532 301.59677819 153.61240924z m239.02620563-492.18872608c-22.77701208-58.796474-47.44107415-111.89869465-73.99218414-159.30666261h-59.75655141a2102.66917083 2102.66917083 0 0 1 71.11195127 159.30666261z m54.02919252 483.68045223c41.7137146-98.65624551 62.5705719-195.35923005 62.5705719-290.20827147V262.3798348c1.92015479-20.8568573 13.30866151-32.24536334 34.16551883-34.13241264h349.93171668V188.45386303H1017.14427307c-37.90651053 1.88704929-57.83639661 23.70398398-59.72344522 65.41769859v270.27838537c1.88704929 91.04183737-18.04283681 185.89087878-59.75655141 284.51401881z m241.84022612-5.69425269c36.01946123-1.92015479 54.98926993-19.92988609 56.87631923-54.06229871V535.50534686h59.75655139c37.93961671-1.88704929 57.83639661-20.8568573 59.75655141-56.90942473V350.60765166c-1.92015479-32.24536334-22.77701208-49.32812275-62.5705719-51.21517136h-82.53356418c5.69425337-18.96980801 10.42842865-40.78674338 14.23563274-65.41769859H1184.99231574a325.76424743 325.76424743 0 0 0-5.69425338 31.28528594l-8.54138005 34.13241265h-42.70689816c-36.01946123 1.88704929-54.95616373 18.96980801-56.87631854 51.21517136v125.17424998c0 39.82666532 18.96980801 59.75655141 56.90942471 59.75655141h65.45080478v219.06321403c-1.92015479 15.16260394-13.30866151 23.70398398-34.16551883 25.62413876h-45.52091867l8.54138004 39.82666599z m122.3271233-421.10988101h-187.77792807V359.18213788c1.88704929-15.19571013 11.38850604-22.77701208 28.47126614-22.77701277h130.86850267c17.04965322 1.92015479 26.55111067 9.50145743 28.43815926 22.77701277z m-426.73792132 113.81885013a300.83533726 300.83533726 0 0 1-8.57448554-19.89677991c-26.55111067-60.68352261-47.40796796-103.39042147-62.5705719-128.02137666h-59.7565521a1815.3742384 1815.3742384 0 0 1 65.45080478 147.91815657z m395.45263538-11.35540055H1156.52104959c-20.8568573-1.92015479-31.28528595-11.38850604-31.28528595-28.47126544V435.95523633h187.77792807v34.13241263c0 20.8568573-10.42842865 31.31839213-31.28528594 31.31839145z m-469.4448195 321.46045192c36.01946123-79.6533313 70.18498005-169.73509127 102.4303434-270.24527986h-56.94253092c-26.51800448 77.76628204-62.5705719 167.84804199-108.09149057 270.27838606z m261.73700601-48.33493916c28.47126546-56.94253091 50.25509396-121.4001521 65.45080409-193.47218144h-48.36804468c-15.19571013 66.37777598-36.97953931 126.13432739-65.45080476 179.2365487z m287.3611448 0l45.52091867-14.23563274c-24.66406137-53.10222065-46.48099607-112.85877205-65.45080477-179.2365487h-45.52091868c15.19571013 73.95907794 36.97953931 138.44980532 65.45080478 193.47218144z m173.54229534 48.33493916c30.35831474-91.04183737 44.56084128-176.38942202 42.70689819-256.04275333V316.47523901c3.77409789-20.8568573 15.12949774-32.24536334 34.09930644-34.16551813h517.77975866V242.51616107h-258.88987933a670.10102935 670.10102935 0 0 0-25.59103258-65.41769857h-59.72344522c1.88704929 5.69425337 5.66114717 16.12268201 11.35539986 31.28528595l8.54137938 34.13241262h-224.75746672c-36.05256742 3.80720408-55.94934733 24.66406137-59.75655141 62.60367809v258.88987934c0 73.99218412-15.16260394 154.60559284-45.52091866 241.84022679z m389.75838268 5.6942527v-105.27747009h204.86068682V683.4897158h-204.86068682v-85.34758467h179.23654804v-39.8597715h-179.23654804V458.73224841H1864.9920754v99.55011121h-156.49264145l68.29793077-139.37677652h341.39033734v-42.70689818h-321.46045124l34.09930644-68.26482526h-62.5705719l-34.13241263 68.26482526h-113.81885014v42.70689818h93.88896404l-62.5705719 133.71562935c-5.69425337 13.24244914-4.76728147 24.63095519 2.81402051 34.09930644 9.50145743 7.61440816 19.92988609 11.42161223 31.31839214 11.42161224h179.23654802v85.34758467h-258.88987935v39.82666532h258.88987935v105.27747007z" fill="#090E14" fill-opacity=".8" p-id="1233"></path></svg>