<?xml version="1.0" standalone="no"?><!DOCTYPE svg PUBLIC "-//W3C//DTD SVG 1.1//EN" "http://www.w3.org/Graphics/SVG/1.1/DTD/svg11.dtd"><svg t="1702484666578" class="icon" viewBox="0 0 1045 1024" version="1.1" xmlns="http://www.w3.org/2000/svg" p-id="1459" xmlns:xlink="http://www.w3.org/1999/xlink" width="204.1015625" height="200"><path d="M853.578951 119.127484h-16.380029v49.636452h16.380029c12.905477 0 23.329132 10.423655 23.329132 23.329132v630.382938c0 12.905477-10.423655 23.329132-23.329132 23.329132l-16.380029-9.92729v49.636452l16.380029 9.92729c40.205526 0 72.965584-32.760058 72.965584-72.965584v-630.382938c0-40.70189-32.760058-72.965584-72.965584-72.965584z" fill="#33A7E0" p-id="1460"></path><path d="M853.578951 897.427048h-0.496364l-18.365488-10.920019v-55.592826l19.854581 11.912748c10.920019-0.496365 19.854581-9.430926 19.854581-20.84731v-630.382937c0-11.416384-9.430926-20.84731-20.84731-20.84731H834.717099v-54.600097h18.861852c41.694619 0 75.447407 33.752787 75.447407 75.447407v630.382937c0 41.694619-33.752787 75.447407-75.447407 75.447407z m-13.898206-13.898207l14.890935 8.934562c38.220068-0.496365 69.491032-31.767329 69.491033-70.483762v-630.382937c0-38.716432-31.767329-70.483762-70.483762-70.483762H839.680745v44.672807h13.898206c13.898206 0 25.810955 11.416384 25.810955 25.810955v630.382937c0 13.898206-11.416384 25.810955-25.810955 25.810955h-0.496364l-13.401842-7.941832v43.680077zM634.682199 239.744062H293.679775c-15.883665 0-28.789142-12.905477-28.789142-28.789142 0-15.883665 12.905477-28.789142 28.789142-28.789142h341.002424c15.883665 0 28.789142 12.905477 28.789142 28.789142 0 15.883665-12.905477 28.789142-28.789142 28.789142z" fill="#4CB34D" p-id="1461"></path><path d="M636.171292 242.225885H291.694317c-16.380029 0-29.781871-13.898206-29.781871-31.270965s13.401842-31.270965 29.781871-31.270965H636.171292c16.380029 0 29.781871 13.898206 29.781871 31.270965s-13.401842 31.270965-29.781871 31.270965zM291.694317 184.151236c-13.898206 0-24.818226 11.912748-24.818226 26.30732s11.416384 26.307319 24.818226 26.307319H636.171292c13.898206 0 24.818226-11.912748 24.818226-26.307319s-11.416384-26.307319-24.818226-26.30732H291.694317zM634.682199 391.13524H293.679775c-15.883665 0-28.789142-12.905477-28.789142-28.789142 0-15.883665 12.905477-28.789142 28.789142-28.789142h341.002424c15.883665 0 28.789142 12.905477 28.789142 28.789142 0 15.3873-12.905477 28.789142-28.789142 28.789142z" fill="#4CB34D" p-id="1462"></path><path d="M636.171292 393.617063H291.694317c-16.380029 0-29.781871-13.898206-29.781871-31.270965s13.401842-31.270965 29.781871-31.270965H636.171292c16.380029 0 29.781871 13.898206 29.781871 31.270965s-13.401842 31.270965-29.781871 31.270965zM291.694317 335.542414c-13.898206 0-24.818226 11.912748-24.818226 26.307319s11.416384 26.307319 24.818226 26.30732H636.171292c13.898206 0 24.818226-11.912748 24.818226-26.30732s-11.416384-26.307319-24.818226-26.307319H291.694317z" fill="#4CB34D" p-id="1463"></path><path d="M553.278418 547.986428H293.679775c-15.883665 0-28.789142-12.905477-28.789142-28.789142 0-15.883665 12.905477-28.789142 28.789142-28.789143h259.598643c15.883665 0 28.789142 12.905477 28.789142 28.789143 0 15.883665-12.905477 28.789142-28.789142 28.789142z" fill="#4CB34D" p-id="1464"></path><path d="M554.767511 550.46825h-263.073194c-16.380029 0-29.781871-13.898206-29.781871-31.270964s13.401842-31.270965 29.781871-31.270965h263.073194c16.380029 0 29.781871 13.898206 29.781871 31.270965s-13.401842 31.270965-29.781871 31.270964z m-263.073194-58.074648c-13.898206 0-24.818226 11.912748-24.818226 26.307319s11.416384 26.307319 24.818226 26.307319h263.073194c13.898206 0 24.818226-11.912748 24.818226-26.307319s-11.416384-26.307319-24.818226-26.307319h-263.073194z" fill="#4CB34D" p-id="1465"></path><path d="M797.489761 754.970431H125.908568V97.287445C125.908568 43.680078 169.588646 0 223.196014 0H700.69868c53.607368 0 97.287445 43.680078 97.287445 97.287445v657.682986z m-612.017451-59.563742h552.453708V97.287445c0-20.84731-16.876394-37.723703-37.723703-37.723703H223.196014c-20.84731 0-37.723703 16.876394-37.723704 37.723703v598.119244z" fill="#4CB34D" p-id="1466"></path><path d="M957.8155 593.155599h-126.076588l-137.492971 74.951042c-21.343674 13.401842-29.781871 11.912748-45.169171 11.912748H397.916324c-22.832768 0-29.781871 3.970916-67.505575-18.365487l-120.616577-68.498303h-153.873001c-30.278236 0-55.592826 24.818226-55.592826 55.592826v310.227823C0.82471 989.254484 25.642936 1014.07271 56.417536 1014.07271h901.894328c30.278236 0 55.592826-24.818226 55.592826-55.592826v-310.227824c-0.496365-30.278236-25.31459-55.096461-56.08919-55.096461z m-227.831314 290.373242H304.599794c-4.467281 0-8.934561-1.985458-11.912748-4.963645-23.329132-25.31459-5.46001-55.592826 19.358216-55.592826h425.384392c4.467281 0 8.934561 1.985458 11.912748 4.963646 23.825497 25.31459 5.46001 55.592826-19.358216 55.592825z" fill="#23489D" p-id="1467"></path></svg>