<?xml version="1.0" standalone="no"?><!DOCTYPE svg PUBLIC "-//W3C//DTD SVG 1.1//EN" "http://www.w3.org/Graphics/SVG/1.1/DTD/svg11.dtd"><svg t="1702484697494" class="icon" viewBox="0 0 3120 1024" version="1.1" xmlns="http://www.w3.org/2000/svg" p-id="1615" xmlns:xlink="http://www.w3.org/1999/xlink" width="609.375" height="200"><path d="M915.065905 311.978667V173.738667c-2.82819-53.101714-29.354667-81.042286-79.628191-83.870477H466.651429c2.82819-8.338286 7.021714-19.504762 12.580571-33.499428 2.779429-16.725333 5.607619-27.940571 8.387048-33.499429H407.990857C385.706667 103.862857 343.771429 184.905143 282.331429 265.898667l75.434666 29.354666c41.935238-53.101714 71.192381-103.375238 88.015238-150.869333h347.769905c27.940571-2.779429 41.935238 12.580571 41.935238 46.08v121.514667zM236.202667 207.238095A1070.567619 1070.567619 0 0 0 123.075048 35.449905H43.398095A1460.126476 1460.126476 0 0 1 143.993905 207.238095z m695.588571 297.545143l29.354667-67.047619c-145.310476-19.553524-245.857524-69.87581-301.738667-150.869333h-62.854095a260.729905 260.729905 0 0 0 33.54819-92.16h-79.62819C533.699048 309.150476 430.372571 388.778667 240.39619 433.493333l29.354667 58.660572c167.643429-39.107048 273.798095-100.59581 318.464-184.368762 61.44 103.375238 176.030476 169.008762 343.625143 196.949333z m-787.797333-12.580571C183.100952 430.762667 215.235048 351.085714 240.39619 253.318095H160.768a1095.192381 1095.192381 0 0 1-108.934095 238.884572z m33.54819 331.044571v-196.998095c2.779429-25.112381 18.139429-39.058286 46.08-41.886476h527.993905c30.72 0 46.08 13.994667 46.08 41.935238v196.949333h83.870476v-201.142857c-2.82819-61.44-34.962286-93.622857-96.402286-96.402286H190.073905c-61.44 2.82819-93.574095 32.182857-96.353524 88.015238v209.529905z m758.442667 163.401143l29.354667-67.047619c-192.75581-22.332952-326.851048-86.601143-402.285715-192.75581h-58.660571c11.166476-25.112381 20.967619-54.467048 29.305905-87.966476H445.732571c-19.553524 67.047619-46.128762 115.907048-79.62819 146.627048-58.660571 64.26819-176.030476 106.154667-352.012191 125.70819l20.96762 62.902857c189.976381-19.553524 321.243429-64.26819 393.898666-134.095238a414.183619 414.183619 0 0 0 62.854095-79.62819c89.380571 128.487619 237.470476 203.922286 444.220953 226.255238z m352.060952-724.943238c-33.54819-86.601143-69.87581-164.815238-108.982857-234.642286h-88.015238a3097.014857 3097.014857 0 0 1 104.740571 234.642286z m79.579429 712.411428c61.44-145.310476 92.16-287.744 92.16-427.446857V144.335238c2.82819-30.72 19.602286-47.494095 50.322286-50.273524h515.413333V35.449905H1468.220952c-55.832381 2.779429-85.187048 34.913524-87.966476 96.353524v398.09219c2.779429 134.095238-26.575238 273.798095-88.015238 419.05981z m356.205714-8.387047c53.052952-2.82819 80.993524-29.354667 83.772953-79.628191V546.620952h88.015238c55.881143-2.779429 85.187048-30.72 88.015238-83.821714V274.285714c-2.82819-47.494095-33.54819-72.655238-92.16-75.434666h-121.563429c8.387048-27.940571 15.36-60.074667 20.967619-96.353524H1715.44381a479.817143 479.817143 0 0 0-8.387048 46.08l-12.580572 50.273524h-62.902857c-53.052952 2.779429-80.944762 27.940571-83.772952 75.434666v184.368762c0 58.660571 27.940571 88.015238 83.821714 88.015238h96.402286v322.657524c-2.82819 22.332952-19.602286 34.913524-50.322286 37.741714h-67.047619l12.580572 58.660572z m180.175238-620.251429h-276.577524V286.915048c2.779429-22.381714 16.774095-33.54819 41.935239-33.548191h192.755809c25.112381 2.82819 39.107048 13.994667 41.886476 33.548191z m-628.540952 167.643429a443.099429 443.099429 0 0 1-12.629333-29.305905c-39.107048-89.380571-69.827048-152.283429-92.16-188.562286h-88.015239a2673.859048 2673.859048 0 0 1 96.402286 217.868191z m582.460952-16.725334H1673.508571c-30.72-2.82819-46.08-16.774095-46.08-41.935238V399.993905h276.577524v50.273524c0 30.72-15.36 46.128762-46.08 46.128761z m-691.443809 473.478096c53.052952-117.321143 103.375238-250.002286 150.869333-398.043429h-83.870476c-39.058286 114.541714-92.16 247.222857-159.207619 398.092191z m385.511619-71.192381c41.935238-83.870476 74.020571-178.809905 96.402285-284.964572h-71.241142c-22.381714 97.767619-54.467048 185.782857-96.402286 263.996953z m423.253333 0l67.047619-20.967619c-36.327619-78.214095-68.461714-166.229333-96.402286-263.996953h-67.047619c22.381714 108.934095 54.467048 203.922286 96.402286 284.964572z m255.609905 71.192381c44.714667-134.095238 65.633524-259.803429 62.902857-377.124572V224.01219c5.558857-30.72 22.28419-47.494095 50.224762-50.322285h762.63619V115.078095h-381.318095a986.989714 986.989714 0 0 0-37.692952-96.353524h-87.966476c2.779429 8.387048 8.338286 23.747048 16.725333 46.08l12.580571 50.273524h-331.044571c-53.101714 5.607619-82.407619 36.327619-88.015238 92.208762v381.318095c0 108.982857-22.332952 227.718095-67.047619 356.205715z m574.073905 8.387047v-155.062857h301.738666V764.586667h-301.738666v-125.708191h263.996952v-58.709333h-263.996952V433.542095H2717.013333v146.627048h-230.497523l100.595809-205.287619h502.832762v-62.902857h-473.478095l50.224762-100.547048h-92.16l-50.273524 100.547048h-167.643429v62.902857h138.288762l-92.16 196.949333c-8.387048 19.504762-7.021714 36.278857 4.144762 50.224762 13.994667 11.215238 29.354667 16.822857 46.128762 16.822857h263.996952v125.708191h-381.318095v58.660571h381.318095v155.062857z" fill="#090E14" fill-opacity=".8" p-id="1616"></path></svg>