<?xml version="1.0" standalone="no"?><!DOCTYPE svg PUBLIC "-//W3C//DTD SVG 1.1//EN" "http://www.w3.org/Graphics/SVG/1.1/DTD/svg11.dtd"><svg t="1702484718609" class="icon" viewBox="0 0 1045 1024" version="1.1" xmlns="http://www.w3.org/2000/svg" p-id="1920" xmlns:xlink="http://www.w3.org/1999/xlink" width="204.1015625" height="200"><path d="M833.29894848 164.17620973h-14.50181302v43.94488838h14.50181303c11.42567051 0 20.65409716 9.22842664 20.65409715 20.65409716v558.10008054c0 11.42567051-9.22842664 20.65409716-20.65409715 20.65409717l-14.50181303-8.78897733v43.94488839l14.50181303 8.78897734c35.59535952 0 64.59898556-29.00362606 64.59898556-64.59898557v-558.10008054c0-36.03480792-29.00362606-64.59898556-64.59898556-64.59898554z" fill="#82BCF8" p-id="1921"></path><path d="M833.29894848 853.23205685h-0.43944843l-16.25960938-9.66787508v-49.21827477l17.57795555 10.54677278c9.66787507-0.43944933 17.57795554-8.3495289 17.57795553-18.45685328v-558.10007965c0-10.10732436-8.3495289-18.45685326-18.45685326-18.45685326H816.59989067v-48.33937707h16.69905781c36.91370564 0 66.79623033 29.88252378 66.79623032 66.79623033v558.10007965c0 36.91370564-29.88252378 66.79623033-66.79623032 66.79623035z m-12.30456825-12.30456914l13.18346599 7.91008049c33.83756402-0.43944933 61.52284306-28.12472833 61.52284394-62.4017417v-558.10007965c0-34.27701246-28.12472833-62.40174168-62.40174167-62.40174167H820.99438023v39.55039975h12.30456826c12.30456827 0 22.85134196 10.10732436 22.85134195 22.85134192v558.10007965c0 12.30456827-10.10732436 22.85134196-22.85134195 22.85134195h-0.43944844l-11.86511982-7.03118188v38.67150113zM639.50199181 270.96228821H337.60060961c-14.06236461 0-25.48803514-11.42567051-25.48803516-25.48803512 0-14.06236461 11.42567051-25.48803514 25.48803516-25.48803513h301.9013822c14.06236461 0 25.48803514 11.42567051 25.48803512 25.48803513 0 14.06236461-11.42567051 25.48803514-25.48803512 25.48803512z" fill="#82BCF8" p-id="1922"></path><path d="M640.82033798 273.15953298H335.84281414c-14.50181303 0-26.36693287-12.30456827-26.36693285-27.68527988s11.86511984-27.68527989 26.36693285-27.68527993H640.82033798c14.50181303 0 26.36693287 12.30456827 26.36693285 27.68527993s-11.86511984 27.68527989-26.36693285 27.68527987zM335.84281414 221.74401343c-12.30456827 0-21.97244421 10.54677279-21.9724442 23.29079124s10.10732436 23.29079035 21.9724442 23.29079032H640.82033798c12.30456827 0 21.97244421-10.54677279 21.97244417-23.29079032s-10.10732436-23.29079035-21.97244417-23.29079123H335.84281414zM639.50199181 404.99419732H337.60060961c-14.06236461 0-25.48803514-11.42567051-25.48803516-25.48803514 0-14.06236461 11.42567051-25.48803514 25.48803516-25.48803514h301.9013822c14.06236461 0 25.48803514 11.42567051 25.48803512 25.48803514 0 13.62291531-11.42567051 25.48803514-25.48803512 25.48803514z" fill="#82BCF8" p-id="1923"></path><path d="M640.82033798 407.19144206H335.84281414c-14.50181303 0-26.36693287-12.30456827-26.36693285-27.68527988s11.86511984-27.68527989 26.36693285-27.68527992H640.82033798c14.50181303 0 26.36693287 12.30456827 26.36693285 27.68527992s-11.86511984 27.68527989-26.36693285 27.68527989zM335.84281414 355.7759225c-12.30456827 0-21.97244421 10.54677279-21.9724442 23.29079035s10.10732436 23.29079035 21.9724442 23.29079123H640.82033798c12.30456827 0 21.97244421-10.54677279 21.97244417-23.29079123s-10.10732436-23.29079035-21.97244417-23.29079035H335.84281414z" fill="#82BCF8" p-id="1924"></path><path d="M567.4323751 543.86004434H337.60060961c-14.06236461 0-25.48803514-11.42567051-25.48803516-25.48803512 0-14.06236461 11.42567051-25.48803514 25.48803516-25.48803601h229.83176549c14.06236461 0 25.48803514 11.42567051 25.48803511 25.48803601 0 14.06236461-11.42567051 25.48803514-25.48803511 25.48803512z" fill="#82BCF8" p-id="1925"></path><path d="M568.75072123 546.05728825h-232.90790709c-14.50181303 0-26.36693287-12.30456827-26.36693285-27.68527903s11.86511984-27.68527989 26.36693285-27.6852799h232.90790709c14.50181303 0 26.36693287 12.30456827 26.36693289 27.6852799s-11.86511984 27.68527989-26.36693289 27.68527903z m-232.90790709-51.4155187c-12.30456827 0-21.97244421 10.54677279-21.9724442 23.29079037s10.10732436 23.29079035 21.9724442 23.29079036h232.90790709c12.30456827 0 21.97244421-10.54677279 21.97244421-23.29079035s-10.10732436-23.29079035-21.97244421-23.29079038h-232.90790709z" fill="#82BCF8" p-id="1926"></path><path d="M783.64122524 727.11022735H189.06688749V144.84045873C189.06688749 97.37998028 227.7383895 58.70847828 275.19886883 58.70847828H697.94869323c47.46047934 0 86.13198043 38.67150201 86.13198046 86.13198044v582.26976863z m-541.84047202-52.73386574h489.10660544V144.84045873c0-18.45685326-14.94126235-33.39811473-33.39811471-33.39811473H275.19886883c-18.45685326 0-33.39811473 14.94126235-33.39811562 33.39811472v529.53590289z" fill="#82BCF8" p-id="1927"></path><path d="M925.58321393 583.84989251h-111.62001646l-121.72733994 66.35678104c-18.89630169 11.86511984-26.36693287 10.54677279-39.98984814 10.54677278H429.88487506c-20.21464874 0-26.36693287 3.51559093-59.76504846-16.25960851l-106.7860776-60.64394531h-136.22915387c-26.80638216 0-49.21827482 21.97244421-49.21827479 49.2182748v274.65555071C78.32576964 934.53010022 100.29821385 956.50254441 127.54404444 956.50254441h798.47861794c26.80638216 0 49.21827482-21.97244421 49.21827478-49.21827481v-274.65555161c-0.43944933-26.80638216-22.41189261-48.77882548-49.65772323-48.77882548z m-201.70703713 257.0775952H347.26848466c-3.95504024 0-7.91007959-1.75779546-10.54677278-4.39448867-20.65409716-22.41189261-4.83393797-49.21827482 17.13850623-49.21827479h376.60769212c3.95504024 0 7.91007959 1.75779546 10.5467728 4.39448953 21.0935465 22.41189261 4.83393797 49.21827482-17.13850623 49.21827393z" fill="#82BCF8" p-id="1928"></path></svg>