<?xml version="1.0" standalone="no"?><!DOCTYPE svg PUBLIC "-//W3C//DTD SVG 1.1//EN" "http://www.w3.org/Graphics/SVG/1.1/DTD/svg11.dtd"><svg t="1702485225262" class="icon" viewBox="0 0 1024 1024" version="1.1" xmlns="http://www.w3.org/2000/svg" p-id="1232" xmlns:xlink="http://www.w3.org/1999/xlink" width="200" height="200"><path d="M663.011556 514.730667c-24.462222 0-47.331556 8.96-66.929778 20.394666 0-2.844444 0.426667-4.892444 0.426666-7.338666 0-103.253333-82.005333-190.549333-186.453333-190.549334-86.499556 0-161.564444 60.785778-183.608889 140.344889a154.026667 154.026667 0 0 0-117.902222 149.731556c0 77.539556 53.447111 143.217778 128.512 153.827555h439.011556c66.901333-6.542222 119.950222-63.658667 119.950222-132.181333 0-73.045333-59.562667-134.257778-133.006222-134.257778z" fill="#8B6AFF" p-id="1233"></path><path d="M923.306667 515.527111c0-67.299556-54.670222-123.619556-122.396445-123.619555-22.471111 0-43.662222 8.163556-61.610666 18.773333 0-2.446222 0.398222-4.494222 0.398222-6.940445 0-95.061333-75.463111-175.018667-171.349334-175.018666-52.224 0-99.953778 24.064-132.181333 61.184 97.507556 11.036444 177.493333 83.228444 201.528889 177.891555 8.590222-1.223111 16.753778-2.048 24.888889-2.048 93.866667 0 171.377778 71.822222 180.764444 164.010667 46.904889-17.521778 79.928889-62.407111 79.928889-114.232889z" fill="#F7B500" p-id="1234"></path></svg>