<?xml version="1.0" standalone="no"?><!DOCTYPE svg PUBLIC "-//W3C//DTD SVG 1.1//EN" "http://www.w3.org/Graphics/SVG/1.1/DTD/svg11.dtd"><svg t="1702485311311" class="icon" viewBox="0 0 1024 1024" version="1.1" xmlns="http://www.w3.org/2000/svg" p-id="1382" xmlns:xlink="http://www.w3.org/1999/xlink" width="200" height="200"><path d="M814.72 270.72c0-48.810667-42.666667-48.810667-42.666667-48.810667H251.989333s-42.666667 0-42.666666 48.810667v48.810667h607.146666V270.72h-1.706666zM685.098667 128H338.901333s-42.666667 0-42.666666 48.810667h433.237333C727.765333 128 685.098667 128 685.098667 128z m216.618666 191.530667l-25.6-28.16v76.970666H147.882667V291.413333l-25.6 28.16c-25.6 28.16-44.373333 35.669333-34.133334 95.744 10.24 60.117333 59.733333 386.816 66.56 431.914667C163.242667 896 207.573333 896 207.573333 896h607.146667s44.373333 0 52.906667-48.810667c6.826667-45.098667 56.277333-371.797333 68.181333-431.914666 10.24-60.074667-8.533333-67.584-34.133333-95.744z m-216.618666 257.28s0 48.810667-42.624 48.810666H381.525333c-42.666667 0-42.666667-48.853333-42.666666-48.853333v-95.744h61.44v76.970667h225.109333v-76.970667h61.44l-1.706667 95.744z" fill="#6FCF97" p-id="1383"></path></svg>