<?xml version="1.0" standalone="no"?><!DOCTYPE svg PUBLIC "-//W3C//DTD SVG 1.1//EN" "http://www.w3.org/Graphics/SVG/1.1/DTD/svg11.dtd"><svg t="1702485317910" class="icon" viewBox="0 0 1820 1024" version="1.1" xmlns="http://www.w3.org/2000/svg" p-id="1531" xmlns:xlink="http://www.w3.org/1999/xlink" width="355.46875" height="200"><path d="M1209.7460269 586.62677453l-148.8084088 14.59804482-115.5405772 48.59905179a107.06978431 107.06978431 0 0 1-65.63228395-5.11913595l-77.89987958-32.03714338c-12.75201392-5.25005899-26.18483343-8.66718021-39.89259356-10.18589938L617.96879235 586.62677453V267.17180743h591.77723455v319.4549671z" fill="#A6CE64" p-id="1532"></path><path d="M1262.05023087 921.68790381H585.13301067c-59.93708332 0-108.69324302-48.7561597-108.69324303-108.69324441V588.66919276c0-18.78761806 15.27885043-34.06646849 34.0664685-34.06646848h267.37333395c10.86670637 0 21.17043839 5.25005899 27.54644466 14.06125538l31.34324464 43.32280653c17.71403917 24.49591184 45.2212072 38.55716721 75.46469085 38.5571672s57.73755715-14.04816363 75.46468946-38.5571672l31.33015288-43.29662165c6.34982276-8.79810463 16.66664655-14.08744027 27.55953781-14.08744026h262.59460151c18.76143316 0 34.01409873 15.2657573 34.0140987 34.02719047v251.91118932c0.01309174 44.73678753-36.39691907 81.14679835-81.14679973 81.14679974zM543.47294087 621.62280434V812.9946594c0 22.97719129 18.68287852 41.66006981 41.6600698 41.66006982h676.9172202c7.65906421 0 14.12671827-6.46765405 14.12671827-14.1267169v-218.90520798h-212.72558626l-21.44537901 29.64123268c-15.50142126 21.41919412-35.2055089 38.15130219-58.5885652 49.71190592-21.92979729 10.85361324-46.54354179 16.57500014-71.19656157 16.57499878-24.63992801 0-49.26676428-5.73447867-71.19656156-16.57499878-23.38305632-11.56060374-43.08714396-28.29271181-58.58856521-49.71190592l-21.44537762-29.64123268H543.47294087z m529.88938079-13.70776012l-0.05236976 0.07855466c0.01309174-0.02618489 0.03927664-0.05236977 0.05236976-0.07855466z" p-id="1533"></path><path d="M1201.28832577 616.62150245h-140.35070767v-41.89573377h131.97156119V286.4831218H633.10362523v288.24264688h129.33998512v41.89573377H624.73757187c-18.48649258 0-33.51658731-15.03009472-33.51658729-33.51658729V278.09088358c0-18.47339945 15.03009472-33.51658731 33.51658729-33.5165873h576.56384566c18.48649258 0 33.51658731 15.03009472 33.51658729 33.5165873V583.09182204c-0.01309174 18.49958433-15.04318647 33.52967904-33.52967905 33.52968041z" p-id="1534"></path><path d="M539.24409098 593.5264785l-62.83050822-8.13039079 119.40284008-285.9383798 36.65876655 72.27013908-93.23109841 221.79863151z m744.89304787-1.87221581l62.83050686-8.13039076-119.4028401-285.9383798-36.65876653 72.27014045 93.23109977 221.79863011z m-83.97476174-379.13020155h-584.44548069c-11.57369686 0-20.94786621-9.37417072-20.9478662-20.94786758s9.37417072-20.94786621 20.9478662-20.94786619h584.44548069c11.57369686 0 20.94786621 9.37417072 20.94786759 20.94786619s-9.37417072 20.94786621-20.94786759 20.94786758z m-2.09478661-68.08056721h-584.44548071c-11.57369686 0-20.94786621-9.37417072-20.94786618-20.9478662s9.37417072-20.94786621 20.94786618-20.94786758h584.44548071c11.57369686 0 20.94786621 9.37417072 20.94786758 20.94786758s-9.37417072 20.94786621-20.94786758 20.9478662z" p-id="1535"></path></svg>