<?xml version="1.0" standalone="no"?><!DOCTYPE svg PUBLIC "-//W3C//DTD SVG 1.1//EN" "http://www.w3.org/Graphics/SVG/1.1/DTD/svg11.dtd"><svg t="1702485451158" class="icon" viewBox="0 0 3120 1024" version="1.1" xmlns="http://www.w3.org/2000/svg" p-id="1599" id="mx_n_1702485451159" xmlns:xlink="http://www.w3.org/1999/xlink" width="609.375" height="200"><path d="M1057.75985878 357.4882815V250.70117213c-2.18470945-41.01981005-22.6757815-62.60323682-61.5108821-64.78794705H711.37034999c2.18470945-6.44112745 5.42410692-15.06696435 9.71819164-25.87751072 2.14704275-12.91992162 4.33175219-21.58342601 6.47879494-25.87751149H666.05645446C648.84244813 196.72377222 616.44847499 259.32700903 568.98753749 321.89257838l58.27148386 22.67578074c32.39397314-41.01981005 54.99441968-79.85491064 67.98967628-116.5429685h268.64397339c21.58342601-2.14704275 32.39397314 9.71819163 32.39397314 35.59570313v93.86718775zM533.35416688 276.57868285A826.98800219 826.98800219 0 0 0 445.96577407 143.87639528H384.41722448A1127.91294628 1127.91294628 0 0 1 462.12509316 276.57868285z m537.32561352 229.8465403l22.67578151-51.79268971c-112.24888378-15.10463184-189.91908497-53.97739993-233.08593776-116.5429685h-48.55329223a201.40764528 201.40764528 0 0 0 25.91517821-71.19140624h-61.51088134C763.16303969 355.30357128 683.34579576 416.81445338 536.59356357 451.3554685l22.67578152 45.31389553c129.50055836-30.20926369 211.50251097-77.70786867 246.00585937-142.42048 47.4609375 79.85491064 135.97935253 130.5552456 265.44224342 152.13867163z m-608.55468724-9.71819165C492.33435607 449.246094 517.15718032 387.69754442 536.59356357 312.17438597H475.08268226a846.01004468 846.01004468 0 0 1-84.14899535 184.53264553z m25.91517819 255.72405102v-152.1763391c2.14704275-19.39871656 14.01227712-30.1715962 35.59570313-32.35630567h407.8627234c23.73046875 0 35.59570313 10.81054713 35.59570313 32.39397315v152.13867162h64.78794628v-155.37806909c-2.18470945-47.4609375-27.0075337-72.32142846-74.46847121-74.46847121H497.72079628c-47.4609375 2.18470945-72.28376097 24.86049097-74.43080371 67.98967628v161.85686402z m585.87890652 126.22349341l22.6757815-51.7926897c-148.89927492-17.25167381-252.48465431-66.89732153-310.75613893-148.89927492h-45.31389477c8.62583691-19.39871656 16.19698657-42.07449806 22.63811402-67.95200878H695.21103013c-15.10463184 51.79268969-35.6333706 89.53543556-61.51088131 113.26590431-45.31389476 49.64564695-135.97935253 82.00195338-271.92103837 97.10658446l16.19698735 48.59095971c146.75223218-15.10463184 248.15290212-49.64564695 304.27734324-103.58537939a319.94698657 319.94698657 0 0 0 48.55329222-61.51088133c69.0443635 99.25362719 183.44029003 157.52511183 343.15011208 174.77678564z m271.95870507-560.00139501c-25.91517819-66.89732153-53.97739993-127.31584814-84.18666285-181.25558058h-67.98967627a2392.37025659 2392.37025659 0 0 1 80.90959789 181.25558058z m61.4732146 550.32087009c47.4609375-112.24888378 71.19140625-222.27539063 71.19140625-330.19252221V227.98772315c2.18470945-23.73046875 15.14229932-36.68805785 38.87276808-38.8351006h398.14453099V143.87639528H1485.05896544c-43.12918531 2.14704275-65.80496681 26.96986622-67.95200878 74.43080372v307.51674069c2.14704275 103.5853794-20.52873877 211.50251097-67.98967626 323.71372806z m275.16043505-6.47879417c40.98214256-2.18470945 62.56556934-22.6757815 64.71261209-61.51088209V538.74386131h67.98967626c43.16685279-2.14704275 65.80496681-23.73046875 67.98967627-64.75027879V328.37137255c-2.18470945-36.68805785-25.91517819-56.12444189-71.19140625-58.27148386h-93.90485525c6.47879494-21.58342601 11.86523438-46.40625025 16.19698658-74.43080372H1676.03273843a370.64732153 370.64732153 0 0 0-6.47879495 35.59570312l-9.71819241 38.8351006h-48.59095969c-40.98214256 2.14704275-62.52790185 21.58342601-64.71261131 58.27148387v142.42047997c0 45.31389476 21.58342601 67.98967627 64.75027878 67.98967627h74.46847122v249.24525685c-2.18470945 17.25167381-15.14229932 26.96986622-38.87276809 29.15457566h-51.79268969l9.7181924 45.31389553z m139.18108251-479.12946462h-213.64955372V338.12723244c2.14704275-17.2893413 12.9575891-25.91517819 32.39397392-25.91517898h148.89927415c19.39871656 2.18470945 30.20926369 10.81054713 32.35630565 25.91517898z m-485.53292381 129.50055837a342.2837615 342.2837615 0 0 1-9.75585911-22.63811402c-30.20926369-69.0443635-53.93973244-117.63532399-71.19140625-145.65987745h-67.98967705a2065.49246681 2065.49246681 0 0 1 74.46847121 168.29799147z m449.93722069-12.9199224H1643.63876451c-23.73046875-2.18470945-35.59570313-12.9575891-35.59570313-32.39397313V425.47795778h213.64955372v38.83510059c0 23.73046875-11.86523438 35.6333706-35.59570312 35.63336983z m-534.12388352 365.75055863c40.98214256-90.62779028 79.85491064-193.12081495 116.54296849-307.47907398h-64.78794628c-30.1715962 88.48074756-71.19140625 190.97377222-122.98409595 307.51674147z m297.79854907-54.99441967c32.39397314-64.78794628 57.17912913-138.12639528 74.46847043-220.12834865h-55.03208639c-17.2893413 75.52315844-42.07449806 143.51283472-74.4684712 203.93136207z m326.95312474 0l51.79268969-16.19698658c-28.06222094-60.4185266-52.88504442-128.40820287-74.4684712-203.93136207h-51.7926897c17.2893413 84.14899535 42.07449806 157.52511183 74.46847121 220.12834865z m197.45256715 54.99441967c34.54101588-103.5853794 50.70033497-200.69196461 48.59095971-291.3197549V289.53627194c4.29408471-23.73046875 17.21400632-36.68805785 38.79743311-38.87276729h589.11830319V205.3872766h-294.55915159a762.42606006 762.42606006 0 0 0-29.11690818-74.43080371h-67.95200879c2.14704275 6.47879494 6.44112745 18.34402931 12.91992162 35.59570312l9.71819164 38.83510059h-255.72405101c-41.01981005 4.33175219-63.65792407 28.06222094-67.98967628 71.22907374v294.5591516c0 84.18666283-17.25167381 175.90680785-51.79268968 275.16043581z m443.45842652 6.47879418v-119.78236597h233.085937V707.11718775h-233.085937v-97.10658522h203.93136132v-45.35156224h-203.93136132V451.39313597H2449.72135388v113.26590431h-178.05384984l77.70786791-158.57979906h388.42633937v-48.59095972h-365.75055786l38.79743311-77.67020118h-71.19140625l-38.8351006 77.67020118h-129.50055837v48.59095972h106.82477686l-71.19140625 152.13867161c-6.47879494 15.06696435-5.42410692 28.02455346 3.20172999 38.79743311 10.81054713 8.66350439 22.6757815 12.99525658 35.63337062 12.99525659h203.93136131v97.10658522h-294.55915162v45.31389477h294.55915162v119.78236595z" fill="#090E14" fill-opacity=".8" p-id="1600"></path></svg>